HIERARCHY
ROOT Hips
{
 OFFSET 0.000000 0.000000 0.000000
 CHANNELS 6 Xposition Yposition Zposition Yrotation Xrotation Zrotation
 JOINT Chest
 {
  OFFSET 0.000000 9.585900 0.002600
  CHANNELS 3 Yrotation Xrotation Zrotation
  JOINT Chest2
  {
   OFFSET 0.000000 9.601200 -0.005300
   CHANNELS 3 Yrotation Xrotation Zrotation
   JOINT Chest3
   {
    OFFSET 0.000000 9.561800 0.000000
    CHANNELS 3 Yrotation Xrotation Zrotation
    JOINT Chest4
    {
     OFFSET 0.000000 9.552100 0.000000
     CHANNELS 3 Yrotation Xrotation Zrotation
     JOINT Neck
     {
      OFFSET 0.000000 14.453000 0.000000
      CHANNELS 3 Yrotation Xrotation Zrotation
      JOINT Head
      {
       OFFSET 0.000000 8.936500 -0.011300
       CHANNELS 3 Yrotation Xrotation Zrotation
       End Site
       {
        OFFSET 0.000000 17.073600 -0.006000
       }
      }
     }
     JOINT RightCollar
     {
      OFFSET -2.921100 9.558500 0.000000
      CHANNELS 3 Yrotation Xrotation Zrotation
      JOINT RightShoulder
      {
       OFFSET -13.519700 0.000000 0.000000
       CHANNELS 3 Yrotation Xrotation Zrotation
       JOINT RightElbow
       {
        OFFSET 0.000000 -29.696600 0.000000
        CHANNELS 3 Yrotation Xrotation Zrotation
        JOINT RightWrist
        {
         OFFSET 0.000000 -24.004700 0.000000
         CHANNELS 3 Yrotation Xrotation Zrotation
         End Site
         {
          OFFSET 0.000000 -17.728500 0.000000
         }
        }
       }
      }
     }
     JOINT LeftCollar
     {
      OFFSET 2.921100 9.558500 0.000000
      CHANNELS 3 Yrotation Xrotation Zrotation
      JOINT LeftShoulder
      {
       OFFSET 13.519700 0.000000 0.000000
       CHANNELS 3 Yrotation Xrotation Zrotation
       JOINT LeftElbow
       {
        OFFSET 0.000000 -29.696600 0.000000
        CHANNELS 3 Yrotation Xrotation Zrotation
        JOINT LeftWrist
        {
         OFFSET 0.000000 -24.004700 0.000000
         CHANNELS 3 Yrotation Xrotation Zrotation
         End Site
         {
          OFFSET 0.000000 -17.728500 0.000000
         }
        }
       }
      }
     }
    }
   }
  }
 }
 JOINT RightHip
 {
  OFFSET -7.771700 -0.012900 -0.001300
  CHANNELS 3 Yrotation Xrotation Zrotation
  JOINT RightKnee
  {
   OFFSET 0.000000 -40.869800 0.001200
   CHANNELS 3 Yrotation Xrotation Zrotation
   JOINT RightAnkle
   {
    OFFSET 0.000000 -39.717900 0.002100
    CHANNELS 3 Yrotation Xrotation Zrotation
    JOINT RightToe
    {
     OFFSET 0.000000 -4.965400 11.033500
     CHANNELS 3 Yrotation Xrotation Zrotation
     End Site
     {
      OFFSET 0.000000 -1.423100 5.872300
     }
    }
   }
  }
 }
 JOINT LeftHip
 {
  OFFSET 7.771700 -0.012900 -0.001300
  CHANNELS 3 Yrotation Xrotation Zrotation
  JOINT LeftKnee
  {
   OFFSET 0.000000 -40.869800 0.001200
   CHANNELS 3 Yrotation Xrotation Zrotation
   JOINT LeftAnkle
   {
    OFFSET 0.000000 -39.717900 0.002100
    CHANNELS 3 Yrotation Xrotation Zrotation
    JOINT LeftToe
    {
     OFFSET 0.000000 -4.965400 11.033500
     CHANNELS 3 Yrotation Xrotation Zrotation
     End Site
     {
      OFFSET 0.000000 -1.423100 5.872300
     }
    }
   }
  }
 }
}
MOTION
Frames: 5
Frame Time: 0.008333
-75.969971 57.311566 6.929853 161.458643 -12.729193 0.526220 3.574899 14.259332 2.300430 0.326710 1.334273 0.077026 0.551560 2.247048 0.134100 3.321313 13.005001 1.096789 -0.243629 14.809947 -2.893214 0.629145 -8.250208 -5.328266 7.589760 4.149245 -5.009077 22.914211 -15.951297 -43.217020 37.419524 -47.376093 -11.982805 -4.042195 -3.603627 -35.290168 -17.349709 5.562973 4.640976 -18.035732 -19.153301 40.196663 -71.201233 -50.662958 40.123236 -0.866372 -9.683866 26.127116 -12.805469 -59.727944 5.589499 -31.791236 70.480058 -33.346091 -2.787398 -5.946770 -1.278172 -0.110591 1.261395 -0.107423 5.123423 -62.898751 12.341767 39.254448 64.912402 32.037835 -17.483973 -10.194907 5.522877 -0.911252 -1.491855 -0.212317
-76.002200 57.328182 6.952760 161.525634 -12.717687 0.576817 3.560630 14.379472 2.295975 0.328354 1.351896 0.079921 0.554039 2.275623 0.138953 3.317194 13.081685 1.120896 -0.235462 14.765619 -2.944114 0.665487 -8.330450 -5.428051 7.513292 4.147238 -5.101885 22.705812 -16.274486 -43.465336 38.176872 -47.692322 -11.974692 -4.030673 -3.244316 -35.805912 -17.491118 5.531658 4.833071 -18.261297 -18.990257 40.381786 -71.642640 -50.469843 40.373340 -0.792873 -10.308009 27.031116 -12.775018 -59.740920 5.468638 -31.778362 70.430855 -33.312112 -2.821742 -5.897216 -1.317329 -0.045185 1.229389 -0.072577 5.290376 -62.881442 12.130955 39.167334 64.865099 31.864425 -17.428895 -10.202385 5.581301 -0.986475 -1.534163 -0.233697
-76.026429 57.342239 6.969840 161.577211 -12.710870 0.600928 3.565434 14.503555 2.319417 0.329782 1.368056 0.082483 0.556213 2.301851 0.143326 3.312794 13.151606 1.141964 -0.224300 14.720974 -2.996199 0.707909 -8.411047 -5.531199 7.420138 4.138877 -5.181316 22.480433 -16.651840 -43.713979 39.026128 -48.050748 -11.983454 -3.993629 -2.791159 -36.341888 -17.632407 5.490464 5.016058 -18.454805 -18.813679 40.541708 -72.036287 -50.303045 40.611256 -0.730740 -10.893182 27.969061 -12.777882 -59.722269 5.427799 -31.796878 70.352260 -33.311172 -2.900589 -5.890571 -1.374497 0.061869 1.240332 -0.018320 5.367603 -62.851892 12.036975 39.102665 64.826220 31.687103 -17.387903 -10.236263 5.676581 -1.047479 -1.551723 -0.293945
-76.051348 57.353385 6.979020 161.618971 -12.701918 0.651348 3.565772 14.632096 2.313711 0.330885 1.383615 0.084799 0.557882 2.327089 0.147289 3.306293 13.218736 1.160287 -0.209207 14.672493 -3.051070 0.758906 -8.498345 -5.641327 7.323756 4.111278 -5.251803 22.281895 -17.032219 -43.973375 39.889085 -48.446187 -11.997739 -3.941205 -2.267506 -36.900273 -17.766331 5.433373 5.193050 -18.626807 -18.632399 40.677022 -72.388983 -50.147996 40.841323 -0.676674 -11.430748 28.906470 -12.719456 -59.737030 5.317237 -31.809658 70.324795 -33.302364 -2.963312 -5.853482 -1.419224 0.133428 1.210412 0.023337 5.469992 -62.824596 11.916536 39.083357 64.795564 31.541547 -17.342582 -10.252181 5.773403 -1.102887 -1.568229 -0.347016
-76.072331 57.360975 6.984634 161.667216 -12.673262 0.690477 3.552520 14.747121 2.313549 0.331655 1.399542 0.086920 0.558973 2.352916 0.150828 3.296208 13.287509 1.175862 -0.189860 14.617438 -3.109573 0.819737 -8.597489 -5.760203 7.232102 4.055234 -5.318486 22.146479 -17.377576 -44.250401 40.709848 -48.858290 -12.014816 -3.880121 -1.699221 -37.476265 -17.885405 5.352645 5.364785 -18.783816 -18.453567 40.794020 -72.719096 -49.992282 41.067241 -0.618047 -11.921176 29.798504 -12.688146 -59.770876 5.234517 -31.827070 70.307325 -33.303621 -3.016864 -5.822130 -1.456249 0.193916 1.182339 0.056787 5.532323 -62.835863 11.813165 39.137352 64.774562 31.471531 -17.193326 -10.245074 5.783116 -1.244430 -1.613779 -0.332225
